<svg class="diagram-root" style="background: #f5f6f6" xmlns="http://www.w3.org/2000/svg" xmlns:xlink="http://www.w3.org/1999/xlink"><style>.diagram-root { font-family: "Helvetica Neue", sans-serif; font-size: 12px; } .t { overflow: visible; } .t-bg { y: 40; fill: #fff;   } .th { fill: #005aa0;   } .tht { fill: #fff; font-size: 14px;  } .tf { fill: #323c46; overflow: visible; } .tf.pk { fill: #005aa0; font-weight: bold; } .tf.fk { font-weight: bold; } .ty { fill: #adb1b5; font-weight: normal; text-anchor: end; } .r { fill: transparent; stroke: #c3c3c3; stroke-width: 1; } .l { stroke: 1; } .i { fill: #c2c7ce; stroke: #c2c7ce; } .i.ix { fill: #afb3b6; stroke: #000; } .fa { fill: transparent; overflow: visible; } .fa .bg.hover { fill: #f7f7f7; } .c { cy: 12; r: 4; stroke: #d2d2dc; fill: #d2d2dc; } .hr { fill: transparent; stroke: #323c46; stroke-opacity: 0.035; stroke-width: 13; } .dc { stroke: #fa5a3c; fill: #fa5a3c; } .x { stroke: white; stroke-width: 1; } .hl .th { fill: #1b9bff; } .hl .tht {  } .fhl .bg { fill: #e7f4ff; } .fhls .bg {  } .r.hl { stroke: #1b9bff; } .dim { opacity: 0.25; }</style><g class="drawing-wrapper" transform="translate(-89, -15) scale(1,1)"><g class="rs"><path d="M 343 105 m -1, 0 a 1,1 0 1,0 2,0 a 1,1 0 1,0 -2,0 M 343 105 m -0.5, 0 a 0.5,0.5 0 1,0 1,0 a 0.5,0.5 0 1,0 -1,0  M343 105 L343 105 331 105 M 343 111 m -1, 0 a 1,1 0 1,0 2,0 a 1,1 0 1,0 -2,0 M 343 111 m -0.5, 0 a 0.5,0.5 0 1,0 1,0 a 0.5,0.5 0 1,0 -1,0  M343 111 L343 111 336 105 343 99 M 343 99 m -1, 0 a 1,1 0 1,0 2,0 a 1,1 0 1,0 -2,0 M 343 99 m -0.5, 0 a 0.5,0.5 0 1,0 1,0 a 0.5,0.5 0 1,0 -1,0  M331 105 Q 308.31 105, 285.62 103.5 T 240.23 102 M 228.23 102 m -1, 0 a 1,1 0 1,0 2,0 a 1,1 0 1,0 -2,0 M 228.23 102 m -0.5, 0 a 0.5,0.5 0 1,0 1,0 a 0.5,0.5 0 1,0 -1,0  M228.23 102 L228.23 102 240.23 102 M234.23 108 L234.23 108 234.23 96" id="h4198856870" class="r"></path><path d="M 343 130 m -1, 0 a 1,1 0 1,0 2,0 a 1,1 0 1,0 -2,0 M 343 130 m -0.5, 0 a 0.5,0.5 0 1,0 1,0 a 0.5,0.5 0 1,0 -1,0  M343 130 L343 130 331 130 M 343 136 m -1, 0 a 1,1 0 1,0 2,0 a 1,1 0 1,0 -2,0 M 343 136 m -0.5, 0 a 0.5,0.5 0 1,0 1,0 a 0.5,0.5 0 1,0 -1,0  M343 136 L343 136 336 130 343 124 M 343 124 m -1, 0 a 1,1 0 1,0 2,0 a 1,1 0 1,0 -2,0 M 343 124 m -0.5, 0 a 0.5,0.5 0 1,0 1,0 a 0.5,0.5 0 1,0 -1,0  M331 130 Q 310.91 130, 290.82 241 T 250.63 352 M 238.63 352 m -1, 0 a 1,1 0 1,0 2,0 a 1,1 0 1,0 -2,0 M 238.63 352 m -0.5, 0 a 0.5,0.5 0 1,0 1,0 a 0.5,0.5 0 1,0 -1,0  M238.63 352 L238.63 352 250.63 352 M244.63 358 L244.63 358 244.63 346" id="h3716356311" class="r"></path><path d="M 238.63 377 m -1, 0 a 1,1 0 1,0 2,0 a 1,1 0 1,0 -2,0 M 238.63 377 m -0.5, 0 a 0.5,0.5 0 1,0 1,0 a 0.5,0.5 0 1,0 -1,0  M238.63 377 L238.63 377 250.63 377 M 238.63 383 m -1, 0 a 1,1 0 1,0 2,0 a 1,1 0 1,0 -2,0 M 238.63 383 m -0.5, 0 a 0.5,0.5 0 1,0 1,0 a 0.5,0.5 0 1,0 -1,0  M238.63 383 L238.63 383 245.63 377 238.63 371 M 238.63 371 m -1, 0 a 1,1 0 1,0 2,0 a 1,1 0 1,0 -2,0 M 238.63 371 m -0.5, 0 a 0.5,0.5 0 1,0 1,0 a 0.5,0.5 0 1,0 -1,0  M250.63 377 Q 274.98 377, 299.32 326.5 T 348 276 M 360 276 m -1, 0 a 1,1 0 1,0 2,0 a 1,1 0 1,0 -2,0 M 360 276 m -0.5, 0 a 0.5,0.5 0 1,0 1,0 a 0.5,0.5 0 1,0 -1,0  M360 276 L360 276 348 276 M354 282 L354 282 354 270" id="h244075350" class="r"></path><path d="M 238.63 402 m -1, 0 a 1,1 0 1,0 2,0 a 1,1 0 1,0 -2,0 M 238.63 402 m -0.5, 0 a 0.5,0.5 0 1,0 1,0 a 0.5,0.5 0 1,0 -1,0  M238.63 402 L238.63 402 250.63 402 M 238.63 408 m -1, 0 a 1,1 0 1,0 2,0 a 1,1 0 1,0 -2,0 M 238.63 408 m -0.5, 0 a 0.5,0.5 0 1,0 1,0 a 0.5,0.5 0 1,0 -1,0  M238.63 408 L238.63 408 245.63 402 238.63 396 M 238.63 396 m -1, 0 a 1,1 0 1,0 2,0 a 1,1 0 1,0 -2,0 M 238.63 396 m -0.5, 0 a 0.5,0.5 0 1,0 1,0 a 0.5,0.5 0 1,0 -1,0  M250.63 402 Q 272.48 402, 294.32 408.5 T 338 415 M 350 415 m -1, 0 a 1,1 0 1,0 2,0 a 1,1 0 1,0 -2,0 M 350 415 m -0.5, 0 a 0.5,0.5 0 1,0 1,0 a 0.5,0.5 0 1,0 -1,0  M350 415 L350 415 338 415 M344 421 L344 421 344 409" id="h1141668818" class="r"></path><path d="M 238.63 427 m -1, 0 a 1,1 0 1,0 2,0 a 1,1 0 1,0 -2,0 M 238.63 427 m -0.5, 0 a 0.5,0.5 0 1,0 1,0 a 0.5,0.5 0 1,0 -1,0  M238.63 427 L238.63 427 250.63 427 M 238.63 433 m -1, 0 a 1,1 0 1,0 2,0 a 1,1 0 1,0 -2,0 M 238.63 433 m -0.5, 0 a 0.5,0.5 0 1,0 1,0 a 0.5,0.5 0 1,0 -1,0  M238.63 433 L238.63 433 245.63 427 238.63 421 M 238.63 421 m -1, 0 a 1,1 0 1,0 2,0 a 1,1 0 1,0 -2,0 M 238.63 421 m -0.5, 0 a 0.5,0.5 0 1,0 1,0 a 0.5,0.5 0 1,0 -1,0  M250.63 427 Q 272.48 427, 294.32 421 T 338 415 M 350 415 m -1, 0 a 1,1 0 1,0 2,0 a 1,1 0 1,0 -2,0 M 350 415 m -0.5, 0 a 0.5,0.5 0 1,0 1,0 a 0.5,0.5 0 1,0 -1,0  M350 415 L350 415 338 415 M344 421 L344 421 344 409" id="h3285590736" class="r"></path><path d="M 238.63 452 m -1, 0 a 1,1 0 1,0 2,0 a 1,1 0 1,0 -2,0 M 238.63 452 m -0.5, 0 a 0.5,0.5 0 1,0 1,0 a 0.5,0.5 0 1,0 -1,0  M238.63 452 L238.63 452 250.63 452 M 238.63 458 m -1, 0 a 1,1 0 1,0 2,0 a 1,1 0 1,0 -2,0 M 238.63 458 m -0.5, 0 a 0.5,0.5 0 1,0 1,0 a 0.5,0.5 0 1,0 -1,0  M238.63 458 L238.63 458 245.63 452 238.63 446 M 238.63 446 m -1, 0 a 1,1 0 1,0 2,0 a 1,1 0 1,0 -2,0 M 238.63 446 m -0.5, 0 a 0.5,0.5 0 1,0 1,0 a 0.5,0.5 0 1,0 -1,0  M250.63 452 Q 272.48 452, 294.32 505.5 T 338 559 M 350 559 m -1, 0 a 1,1 0 1,0 2,0 a 1,1 0 1,0 -2,0 M 350 559 m -0.5, 0 a 0.5,0.5 0 1,0 1,0 a 0.5,0.5 0 1,0 -1,0  M350 559 L350 559 338 559 M344 565 L344 565 344 553" id="h2250355269" class="r"></path></g><g class="hrs"></g><g class="ts"><svg width="156.38" height="150" x="343" y="48" id="h3671843433" class="t"><rect height="40" width="156.38" class="th"></rect><text x="13" y="25" class="tht">Buchungsdaten</text><rect height="110" width="156.38" class="t-bg" y="40"></rect><text x="13" y="61" class="tf fk">KdNr<tspan x="143.38" class="ty">int</tspan></text><text x="13" y="86" class="tf fk">ID<tspan x="143.38" class="ty">int</tspan></text><text x="13" y="111" class="tf">Buchungsnummer<tspan x="143.38" class="ty">int</tspan></text><text x="13" y="136" class="tf">Buchungsdatum<tspan x="143.38" class="ty">date</tspan></text></svg><svg width="140.23" height="125" x="360" y="219" id="h3192666946" class="t"><rect height="40" width="140.23" class="th"></rect><text x="13" y="25" class="tht">Flugzeuge</text><rect height="85" width="140.23" class="t-bg" y="40"></rect><text x="13" y="61" class="tf pk">FlugzeugID<tspan x="127.22999999999999" class="ty">int</tspan></text><path d="M7,14A2,2 0 0,1 5,12A2,2 0 0,1 7,10A2,2 0 0,1 9,12A2,2 0 0,1 7,14M12.65,10C11.83,7.67 9.61,6 7, 6A6, 6 0 0, 0 1, 12A6, 6 0 0, 0 7, 18C9.61, 18 11.83, 16.33 12.65, 14H17V18H21V14H23V10H12.65Z" class="i pk" transform="translate(94.5216669845581, 48) scale(0.65)"></path><text x="13" y="86" class="tf">Typ<tspan x="127.22999999999999" class="ty">string</tspan></text><text x="13" y="111" class="tf">Hersteller<tspan x="127.22999999999999" class="ty">string</tspan></text></svg><svg width="150.25" height="125" x="350" y="358" id="h2948249270" class="t"><rect height="40" width="150.25" class="th"></rect><text x="13" y="25" class="tht">Flughafen</text><rect height="85" width="150.25" class="t-bg" y="40"></rect><text x="13" y="61" class="tf pk">FhKuerzel<tspan x="137.25" class="ty">string</tspan></text><path d="M7,14A2,2 0 0,1 5,12A2,2 0 0,1 7,10A2,2 0 0,1 9,12A2,2 0 0,1 7,14M12.65,10C11.83,7.67 9.61,6 7, 6A6, 6 0 0, 0 1, 12A6, 6 0 0, 0 7, 18C9.61, 18 11.83, 16.33 12.65, 14H17V18H21V14H23V10H12.65Z" class="i pk" transform="translate(87.83333396911621, 48) scale(0.65)"></path><text x="13" y="86" class="tf">Land<tspan x="137.25" class="ty">string</tspan></text><text x="13" y="111" class="tf">Stadt<tspan x="137.25" class="ty">string</tspan></text></svg><svg width="150.25" height="100" x="350" y="502" id="h2514295102" class="t"><rect height="40" width="150.25" class="th"></rect><text x="13" y="25" class="tht">Fluggesellschaft</text><rect height="60" width="150.25" class="t-bg" y="40"></rect><text x="13" y="61" class="tf pk">FgKuerzel<tspan x="137.25" class="ty">string</tspan></text><path d="M7,14A2,2 0 0,1 5,12A2,2 0 0,1 7,10A2,2 0 0,1 9,12A2,2 0 0,1 7,14M12.65,10C11.83,7.67 9.61,6 7, 6A6, 6 0 0, 0 1, 12A6, 6 0 0, 0 7, 18C9.61, 18 11.83, 16.33 12.65, 14H17V18H21V14H23V10H12.65Z" class="i pk" transform="translate(87.83333396911621, 48) scale(0.65)"></path><text x="13" y="86" class="tf">Name<tspan x="137.25" class="ty">string</tspan></text></svg><svg width="127.63" height="325" x="111" y="295" id="h3411825527" class="t"><rect height="40" width="127.63" class="th"></rect><text x="13" y="25" class="tht">Flug</text><rect height="285" width="127.63" class="t-bg" y="40"></rect><text x="13" y="61" class="tf pk">ID<tspan x="114.63" class="ty">int</tspan></text><path d="M7,14A2,2 0 0,1 5,12A2,2 0 0,1 7,10A2,2 0 0,1 9,12A2,2 0 0,1 7,14M12.65,10C11.83,7.67 9.61,6 7, 6A6, 6 0 0, 0 1, 12A6, 6 0 0, 0 7, 18C9.61, 18 11.83, 16.33 12.65, 14H17V18H21V14H23V10H12.65Z" class="i pk" transform="translate(81.9216669845581, 48) scale(0.65)"></path><text x="13" y="86" class="tf fk">FlugzeugID</text><text x="13" y="111" class="tf fk">Start<tspan x="114.63" class="ty">string</tspan></text><text x="13" y="136" class="tf fk">Ziel<tspan x="114.63" class="ty">string</tspan></text><text x="13" y="161" class="tf fk">FGesells<tspan x="114.63" class="ty">string</tspan></text><text x="13" y="186" class="tf">Dauer<tspan x="114.63" class="ty">int</tspan></text><text x="13" y="211" class="tf">Datum<tspan x="114.63" class="ty">date</tspan></text><text x="13" y="236" class="tf">Preis<tspan x="114.63" class="ty">double</tspan></text><text x="13" y="261" class="tf">SitzeBelegt<tspan x="114.63" class="ty">int</tspan></text><text x="13" y="286" class="tf">SitzeGesamt<tspan x="114.63" class="ty">int</tspan></text><text x="13" y="311" class="tf">Linie?<tspan x="114.63" class="ty">string</tspan></text></svg><svg width="116.23" height="200" x="112" y="45" id="h1729306598" class="t"><rect height="40" width="116.23" class="th"></rect><text x="13" y="25" class="tht">Kunden</text><rect height="160" width="116.23" class="t-bg" y="40"></rect><text x="13" y="61" class="tf pk">KdNr<tspan x="103.23" class="ty">int</tspan></text><path d="M7,14A2,2 0 0,1 5,12A2,2 0 0,1 7,10A2,2 0 0,1 9,12A2,2 0 0,1 7,14M12.65,10C11.83,7.67 9.61,6 7, 6A6, 6 0 0, 0 1, 12A6, 6 0 0, 0 7, 18C9.61, 18 11.83, 16.33 12.65, 14H17V18H21V14H23V10H12.65Z" class="i pk" transform="translate(70.52166698455811, 48) scale(0.65)"></path><text x="13" y="86" class="tf">Anrede<tspan x="103.23" class="ty">string</tspan></text><text x="13" y="111" class="tf">Name<tspan x="103.23" class="ty">string</tspan></text><text x="13" y="136" class="tf">PLZ<tspan x="103.23" class="ty">string</tspan></text><text x="13" y="161" class="tf">Ort<tspan x="103.23" class="ty">string</tspan></text><text x="13" y="186" class="tf">Strasse<tspan x="103.23" class="ty">string</tspan></text></svg></g></g><text class="qdbd-link" x="10" y="20">www.quickdatabasediagrams.com</text></svg>